{"title":"Tango And Cash [1989].720p.BRRip.x264.[Dual Audio] [Hindi+Englis","uid":7626025,"size":1130306348,"categoryP":"video","categoryS":"hd___movies","magnet":"?xt=urn:btih:d96e3ba8600d15e30130a0566b711a1ac3aef415&amp;dn=Tango+And+Cash+%5B1989%5D.720p.BRRip.x264.%5BDual+Audio%5D+%5BHindi%2BEnglis&amp;tr=udp%3A%2F%2Ftracker.openbittorrent.com%3A80&amp;tr=udp%3A%2F%2Fopen.demonii.com%3A1337&amp;tr=udp%3A%2F%2Ftracker.coppersurfer.tk%3A6969&amp;tr=udp%3A%2F%2Fexodus.desync.com%3A6969","seeders":0,"leechers":1,"uploader":"TeamExD","files":4,"time":1347431314,"description":"Format                                   : Matroska\nFormat version                           : Version 2\nFile size                                : 1.04 GiB\nDuration                                 : 1h 43mn\nOverall bit rate                         : 1 431 Kbps\nMovie name                               : Tango And Cash [1989].720p.BRRip.x264.[Dual Audio] [Hindi+English].by K@rtik [ExD Exclusive]\nCodec ID                                 : V_MPEG4/ISO/AVC\nDuration                                 : 1h 43mn\nBit rate                                 : 984 Kbps\nWidth                                    : 1 280 pixels\nHeight                                   : 528 pixels\nDisplay aspect ratio                     : 2.40:1\nFrame rate                               : 23.976 fps\nChroma subsampling                       : 4:2:0\nBit depth                                : 8 bits\nStream size                              : 709 MiB (67%)\nTitle                                    : K@rtik\nCodec ID                                 : A_AC3\nDuration                                 : 1h 43mn\nBit rate                                 : 224 Kbps\nChannel(s)                               : 2 channels\nChannel positions                        : Front: L R\nSampling rate                            : 48.0 KHz\nStream size                              : 166 MiB (16%)\nTitle                                    : K@rtik\nLanguage                                 : Hindi\nCodec ID                                 : A_AC3\nDuration                                 : 1h 43mn\nBit rate mode                            : Constant\nBit rate                                 : 224 Kbps\nChannel(s)                               : 6 channels\nChannel positions                        : Front: L C R, Side: L R, LFE\nSampling rate                            : 48.0 KHz\nStream size                              : 166 MiB (16%)\nTitle                                    : K@rtik\nLanguage                                 : English &lt;a href=&quot;\nhttp://img269.imageshack.us/img269/9185/78089880.png&quot; rel=&quot;nofollow&quot; target=&quot;_NEW&quot;&gt;\nhttp://img269.imageshack.us/img269/9185/78089880.png&lt;/a&gt; &lt;a href=&quot;\nhttp://img836.imageshack.us/img836/9141/17252337.png&quot; rel=&quot;nofollow&quot; target=&quot;_NEW&quot;&gt;\nhttp://img836.imageshack.us/img836/9141/17252337.png&lt;/a&gt; &lt;a href=&quot;\nhttp://img211.imageshack.us/img211/1926/72484881.png&quot; rel=&quot;nofollow&quot; target=&quot;_NEW&quot;&gt;\nhttp://img211.imageshack.us/img211/1926/72484881.png&lt;/a&gt; &lt;a href=&quot;\nhttp://img222.imageshack.us/img222/1173/25628844.png&quot; rel=&quot;nofollow&quot; target=&quot;_NEW&quot;&gt;\nhttp://img222.imageshack.us/img222/1173/25628844.png&lt;/a&gt; &lt;a href=&quot;\nhttp://img849.imageshack.us/img849/4141/64432166.png&quot; rel=&quot;nofollow&quot; target=&quot;_NEW&quot;&gt;\nhttp://img849.imageshack.us/img849/4141/64432166.png&lt;/a&gt; &lt;a href=&quot;\nhttp://img138.imageshack.us/img138/7236/92233990.png&quot; rel=&quot;nofollow&quot; target=&quot;_NEW&quot;&gt;\nhttp://img138.imageshack.us/img138/7236/92233990.png&lt;/a&gt; &lt;a href=&quot;\nhttp://img222.imageshack.us/img222/8510/25814158.png&quot; rel=&quot;nofollow&quot; target=&quot;_NEW&quot;&gt;\nhttp://img222.imageshack.us/img222/8510/25814158.png&lt;/a&gt; &lt;a href=&quot;\nhttp://img715.imageshack.us/img715/715/39428439.png&quot; rel=&quot;nofollow&quot; target=&quot;_NEW&quot;&gt;\nhttp://img715.imageshack.us/img715/715/39428439.png&lt;/a&gt; &lt;a href=&quot;\nhttp://img853.imageshack.us/img853/8180/76164315.png&quot; rel=&quot;nofollow&quot; target=&quot;_NEW&quot;&gt;\nhttp://img853.imageshack.us/img853/8180/76164315.png&lt;/a&gt; &lt;a href=&quot;\nhttp://img607.imageshack.us/img607/9133/39114040.png&quot; rel=&quot;nofollow&quot; target=&quot;_NEW&quot;&gt;\nhttp://img607.imageshack.us/img607/9133/39114040.png&lt;/a&gt; &lt;a href=&quot;\nhttp://img194.imageshack.us/img194/2141/78995640.png&quot; rel=&quot;nofollow&quot; target=&quot;_NEW&quot;&gt;\nhttp://img194.imageshack.us/img194/2141/78995640.png&lt;/a&gt;\n\n","torrent":{"xt":"urn:btih:d96e3ba8600d15e30130a0566b711a1ac3aef415","amp;dn":"Tango+And+Cash+%5B1989%5D.720p.BRRip.x264.%5BDual+Audio%5D+%5BHindi%2BEnglis","amp;tr":["udp%3A%2F%2Ftracker.openbittorrent.com%3A80","udp%3A%2F%2Fopen.demonii.com%3A1337","udp%3A%2F%2Ftracker.coppersurfer.tk%3A6969","udp%3A%2F%2Fexodus.desync.com%3A6969"],"infoHash":"d96e3ba8600d15e30130a0566b711a1ac3aef415","infoHashBuffer":{"type":"Buffer","data":[217,110,59,168,96,13,21,227,1,48,160,86,107,113,26,26,195,174,244,21]},"announce":[],"urlList":[]}}